<svg xmlns="http://www.w3.org/2000/svg" xmlns:xlink="http://www.w3.org/1999/xlink" width="500" zoomAndPan="magnify" viewBox="0 0 375 374.999991" height="500" preserveAspectRatio="xMidYMid meet" version="1.0"><defs><clipPath id="43113f8c4b"><path d="M 37.5 69.5625 L 337.5 69.5625 L 337.5 305.8125 L 37.5 305.8125 Z M 37.5 69.5625 " clip-rule="nonzero"/></clipPath></defs><g clip-path="url(#43113f8c4b)"><path fill="#ffffff" d="M 295.285156 91.105469 L 79.714844 91.105469 L 180.96875 169.117188 C 184.816406 172.082031 190.179688 172.082031 194.03125 169.117188 Z M 58.929688 102.167969 L 58.929688 284.269531 L 316.070312 284.269531 L 316.070312 102.167969 L 207.097656 186.128906 C 195.542969 195.027344 179.457031 195.027344 167.902344 186.128906 Z M 37.5 91.105469 C 37.5 79.253906 47.09375 69.644531 58.929688 69.644531 L 316.070312 69.644531 C 327.90625 69.644531 337.5 79.253906 337.5 91.105469 L 337.5 284.269531 C 337.5 296.125 327.90625 305.730469 316.070312 305.730469 L 58.929688 305.730469 C 47.09375 305.730469 37.5 296.125 37.5 284.269531 Z M 37.5 91.105469 " fill-opacity="1" fill-rule="evenodd"/></g></svg>