<svg xmlns="http://www.w3.org/2000/svg" xmlns:xlink="http://www.w3.org/1999/xlink" width="500" zoomAndPan="magnify" viewBox="0 0 375 374.999991" height="500" preserveAspectRatio="xMidYMid meet" version="1.0"><path fill="#ffffff" d="M 142.265625 39.222656 C 142.265625 39.222656 78.519531 40.058594 79.347656 97.703125 C 80.175781 155.347656 91.769531 206.320312 110.808594 234.722656 C 129.851562 263.128906 178.6875 337.488281 234.15625 329.972656 C 234.15625 329.972656 261.480469 324.121094 282.171875 310.75 L 215.117188 258.113281 C 215.117188 258.113281 195.25 270.648438 182.832031 253.9375 C 170.414062 237.226562 131.503906 159.53125 131.503906 159.53125 C 131.503906 159.53125 120.742188 134.464844 144.75 123.605469 Z M 142.265625 39.222656 " fill-opacity="1" fill-rule="nonzero"/><path fill="#ffffff" d="M 149.71875 39.222656 C 149.71875 39.222656 154.6875 37.558594 163.789062 42.566406 C 172.890625 47.574219 172.894531 51.75 172.894531 51.75 L 173.726562 109.402344 C 173.726562 109.402344 171.238281 112.746094 167.929688 116.082031 C 164.617188 119.425781 153.855469 124.441406 152.199219 121.097656 C 150.546875 117.757812 149.71875 39.222656 149.71875 39.222656 Z M 149.71875 39.222656 " fill-opacity="1" fill-rule="nonzero"/><path fill="#ffffff" d="M 220.691406 251.953125 L 239.125 242.242188 C 239.125 242.242188 243.265625 241.410156 249.882812 245.582031 C 256.507812 249.769531 291.277344 277.339844 291.277344 277.339844 C 291.277344 277.339844 297.074219 282.351562 295.417969 288.199219 C 293.761719 294.046875 289.621094 306.582031 289.621094 306.582031 Z M 220.691406 251.953125 " fill-opacity="1" fill-rule="nonzero"/></svg>